<svg xmlns="http://www.w3.org/2000/svg" xmlns:xlink="http://www.w3.org/1999/xlink" width="500" zoomAndPan="magnify" viewBox="0 0 375 374.999991" height="500" preserveAspectRatio="xMidYMid meet" version="1.0"><defs><clipPath id="683f8602d1"><path d="M 51.5625 187 L 323.8125 187 L 323.8125 304 L 51.5625 304 Z M 51.5625 187 " clip-rule="nonzero"/></clipPath><clipPath id="e41fb8a9b5"><path d="M 51.5625 265 L 323.8125 265 L 323.8125 375 L 51.5625 375 Z M 51.5625 265 " clip-rule="nonzero"/></clipPath><clipPath id="649119c51e"><path d="M 51.5625 109 L 323.8125 109 L 323.8125 227 L 51.5625 227 Z M 51.5625 109 " clip-rule="nonzero"/></clipPath><clipPath id="2b6e182690"><path d="M 51.5625 38 L 323.8125 38 L 323.8125 149 L 51.5625 149 Z M 51.5625 38 " clip-rule="nonzero"/></clipPath><clipPath id="0615f09030"><path d="M 51.5625 96 L 323.8125 96 L 323.8125 149 L 51.5625 149 Z M 51.5625 96 " clip-rule="nonzero"/></clipPath><clipPath id="4c277bd7d7"><path d="M 51.5625 174 L 323.8125 174 L 323.8125 227 L 51.5625 227 Z M 51.5625 174 " clip-rule="nonzero"/></clipPath><clipPath id="381bdab33f"><path d="M 51.5625 252 L 323.8125 252 L 323.8125 304 L 51.5625 304 Z M 51.5625 252 " clip-rule="nonzero"/></clipPath><clipPath id="ed251a7fe7"><path d="M 51.5625 323 L 323.8125 323 L 323.8125 375 L 51.5625 375 Z M 51.5625 323 " clip-rule="nonzero"/></clipPath><clipPath id="49262dbf01"><path d="M 51.5625 0 L 323.8125 0 L 323.8125 78 L 51.5625 78 Z M 51.5625 0 " clip-rule="nonzero"/></clipPath><clipPath id="6252ad758d"><path d="M 51.5625 32 L 323.8125 32 L 323.8125 78 L 51.5625 78 Z M 51.5625 32 " clip-rule="nonzero"/></clipPath></defs><g clip-path="url(#683f8602d1)"><path fill="#2488ff" d="M 187.6875 303.878906 C 262.792969 303.878906 323.652344 286.511719 323.652344 265.085938 L 323.652344 187.5 C 323.652344 208.925781 262.792969 226.292969 187.6875 226.292969 C 112.582031 226.292969 51.722656 208.925781 51.722656 187.5 L 51.722656 265.085938 C 51.722656 286.511719 112.582031 303.878906 187.6875 303.878906 Z M 187.6875 303.878906 " fill-opacity="1" fill-rule="nonzero"/></g><g clip-path="url(#e41fb8a9b5)"><path fill="#006df0" d="M 323.652344 336.207031 L 323.652344 265.085938 C 323.652344 286.511719 262.792969 303.878906 187.6875 303.878906 C 112.582031 303.878906 51.722656 286.511719 51.722656 265.085938 L 51.722656 336.207031 C 51.722656 357.632812 112.582031 375 187.6875 375 C 262.792969 375 323.652344 357.632812 323.652344 336.207031 Z M 323.652344 336.207031 " fill-opacity="1" fill-rule="nonzero"/></g><g clip-path="url(#649119c51e)"><path fill="#57a4ff" d="M 187.6875 226.292969 C 262.792969 226.292969 323.652344 208.925781 323.652344 187.5 L 323.652344 109.914062 C 323.652344 131.339844 262.792969 148.707031 187.6875 148.707031 C 112.582031 148.707031 51.722656 131.339844 51.722656 109.914062 L 51.722656 187.5 C 51.722656 208.925781 112.582031 226.292969 187.6875 226.292969 Z M 187.6875 226.292969 " fill-opacity="1" fill-rule="nonzero"/></g><g clip-path="url(#2b6e182690)"><path fill="#9bc9ff" d="M 187.6875 148.707031 C 262.792969 148.707031 323.652344 131.339844 323.652344 109.914062 L 323.652344 38.792969 C 323.652344 60.21875 262.792969 77.585938 187.6875 77.585938 C 112.582031 77.585938 51.722656 60.21875 51.722656 38.792969 L 51.722656 109.914062 C 51.722656 131.339844 112.582031 148.707031 187.6875 148.707031 Z M 187.6875 148.707031 " fill-opacity="1" fill-rule="nonzero"/></g><g clip-path="url(#0615f09030)"><path fill="#2488ff" d="M 323.652344 96.984375 L 323.652344 109.914062 C 323.652344 131.316406 262.792969 148.707031 187.6875 148.707031 C 112.582031 148.707031 51.722656 131.316406 51.722656 109.914062 L 51.722656 96.984375 C 51.722656 118.382812 112.582031 135.777344 187.6875 135.777344 C 262.792969 135.777344 323.652344 118.382812 323.652344 96.984375 Z M 323.652344 96.984375 " fill-opacity="1" fill-rule="nonzero"/></g><g clip-path="url(#4c277bd7d7)"><path fill="#006df0" d="M 323.652344 174.570312 L 323.652344 187.5 C 323.652344 208.902344 262.792969 226.292969 187.6875 226.292969 C 112.582031 226.292969 51.722656 208.902344 51.722656 187.5 L 51.722656 174.570312 C 51.722656 195.96875 112.582031 213.363281 187.6875 213.363281 C 262.792969 213.363281 323.652344 195.96875 323.652344 174.570312 Z M 323.652344 174.570312 " fill-opacity="1" fill-rule="nonzero"/></g><g clip-path="url(#381bdab33f)"><path fill="#005ece" d="M 323.652344 252.15625 L 323.652344 265.085938 C 323.652344 286.488281 262.792969 303.878906 187.6875 303.878906 C 112.582031 303.878906 51.722656 286.488281 51.722656 265.085938 L 51.722656 252.15625 C 51.722656 273.554688 112.582031 290.949219 187.6875 290.949219 C 262.792969 290.949219 323.652344 273.554688 323.652344 252.15625 Z M 323.652344 252.15625 " fill-opacity="1" fill-rule="nonzero"/></g><g clip-path="url(#ed251a7fe7)"><path fill="#005ece" d="M 323.652344 323.277344 L 323.652344 336.207031 C 323.652344 357.609375 262.792969 375 187.6875 375 C 112.582031 375 51.722656 357.609375 51.722656 336.207031 L 51.722656 323.277344 C 51.722656 344.675781 112.582031 362.070312 187.6875 362.070312 C 262.792969 362.070312 323.652344 344.675781 323.652344 323.277344 Z M 323.652344 323.277344 " fill-opacity="1" fill-rule="nonzero"/></g><g clip-path="url(#49262dbf01)"><path fill="#bddbff" d="M 323.652344 38.792969 C 323.652344 17.371094 262.777344 0 187.6875 0 C 112.597656 0 51.722656 17.371094 51.722656 38.792969 C 51.722656 60.214844 112.597656 77.585938 187.6875 77.585938 C 262.777344 77.585938 323.652344 60.214844 323.652344 38.792969 Z M 323.652344 38.792969 " fill-opacity="1" fill-rule="nonzero"/></g><g clip-path="url(#6252ad758d)"><path fill="#57a4ff" d="M 323.652344 38.792969 C 323.652344 60.195312 262.792969 77.585938 187.6875 77.585938 C 112.582031 77.585938 51.722656 60.195312 51.722656 38.792969 C 51.761719 36.511719 52.410156 34.277344 53.601562 32.328125 C 64.351562 50.625 120.289062 64.65625 187.6875 64.65625 C 255.085938 64.65625 311.023438 50.625 321.773438 32.328125 C 322.964844 34.277344 323.613281 36.511719 323.652344 38.792969 Z M 323.652344 38.792969 " fill-opacity="1" fill-rule="nonzero"/></g></svg>