<svg xmlns="http://www.w3.org/2000/svg" xmlns:xlink="http://www.w3.org/1999/xlink" width="500" zoomAndPan="magnify" viewBox="0 0 375 374.999991" height="500" preserveAspectRatio="xMidYMid meet" version="1.0"><defs><clipPath id="16e69b478b"><path d="M 71 79 L 375 79 L 375 315.796875 L 71 315.796875 Z M 71 79 " clip-rule="nonzero"/></clipPath><clipPath id="fd487c0e70"><path d="M 0 59.296875 L 59 59.296875 L 59 71 L 0 71 Z M 0 59.296875 " clip-rule="nonzero"/></clipPath></defs><g clip-path="url(#16e69b478b)"><path fill="#8c52ff" d="M 368.828125 232.753906 C 366.234375 232.832031 364.300781 231.9375 364.300781 231.9375 C 365.804688 231.761719 367.4375 232.191406 368.828125 232.753906 Z M 362.355469 229.5625 C 365.847656 229.839844 369.078125 231.144531 371.40625 232.347656 C 370.988281 232.464844 370.589844 232.554688 370.195312 232.625 C 367.308594 230.945312 362.355469 229.5625 362.355469 229.5625 Z M 366.324219 220.914062 C 362.933594 221.566406 358.578125 221.351562 358.578125 221.351562 C 361.414062 220.546875 364.101562 220.582031 366.324219 220.914062 Z M 286.300781 229.027344 C 289.855469 228.25 292.679688 226.824219 294.011719 226.066406 C 294.824219 227.488281 295.515625 228.769531 296.023438 229.769531 C 292.074219 230.394531 286.300781 229.027344 286.300781 229.027344 Z M 288.761719 217.9375 C 289.128906 218.421875 289.472656 218.90625 289.820312 219.402344 C 287.011719 220.222656 284.789062 222.433594 284.789062 222.433594 C 285.210938 220.742188 286.949219 219.175781 288.761719 217.9375 Z M 287.050781 215.75 C 287.3125 216.066406 287.570312 216.375 287.820312 216.703125 C 286.441406 217.1875 285.128906 217.707031 284.191406 218.085938 C 285.183594 217.523438 286.171875 216.660156 287.050781 215.75 Z M 279.820312 216.28125 C 281.539062 215.5625 283.007812 214.265625 284.253906 212.753906 C 284.839844 213.296875 285.4375 213.910156 286.027344 214.570312 C 283.121094 215.640625 279.820312 216.28125 279.820312 216.28125 Z M 278.308594 210.015625 C 279.378906 209.832031 280.535156 210.171875 281.722656 210.851562 C 277.296875 212.785156 274.109375 210.703125 278.308594 210.015625 Z M 293.855469 225.792969 C 290.761719 226.304688 286.300781 225.355469 286.300781 225.355469 C 286.847656 222.796875 288.789062 221.335938 290.578125 220.515625 C 291.789062 222.320312 292.90625 224.144531 293.855469 225.792969 Z M 370.117188 233.328125 C 371.277344 233.910156 372.085938 234.464844 372.179688 234.523438 C 372.070312 234.039062 371.605469 233.554688 370.921875 233.078125 C 371.328125 232.933594 371.664062 232.78125 371.941406 232.632812 C 373.832031 233.652344 375 234.53125 375 234.53125 C 375.050781 233.867188 374.101562 233.03125 372.65625 232.148438 C 372.976562 231.878906 373.121094 231.683594 373.148438 231.628906 C 372.890625 231.761719 372.648438 231.878906 372.390625 231.984375 C 368.113281 229.460938 360.089844 226.652344 360.089844 226.652344 C 363.871094 224.492188 372.078125 225.671875 372.078125 225.671875 C 370.351562 223.082031 361.058594 224.058594 361.058594 224.058594 C 363.902344 223.140625 366.054688 222.015625 367.5 221.117188 C 370.273438 221.699219 372.078125 222.648438 372.078125 222.648438 C 371.664062 221.585938 370.335938 220.835938 368.699219 220.308594 C 369.011719 220.082031 369.253906 219.894531 369.425781 219.761719 C 369.175781 219.945312 368.882812 220.117188 368.546875 220.265625 C 365.078125 219.183594 360.414062 219.089844 360.414062 219.089844 C 361.820312 216.382812 371.542969 216.714844 371.542969 216.714844 C 370.03125 213.90625 359.332031 215.085938 359.332031 215.085938 C 366.03125 211.628906 371.542969 212.925781 371.542969 212.925781 C 364.84375 208.820312 353.066406 215.632812 353.066406 215.632812 C 354.363281 212.609375 362.902344 210.546875 362.902344 210.546875 C 362.902344 210.546875 354.042969 211.195312 348.207031 215.949219 C 342.375 220.703125 335.347656 219.40625 335.347656 219.40625 C 336.480469 217.679688 337.5 215.050781 338.019531 213.628906 C 336.738281 216.042969 332.574219 218.058594 332.054688 218.304688 C 333.980469 217.125 337.085938 212.105469 337.464844 211.472656 C 332.894531 217.585938 320.871094 218.328125 320.871094 218.328125 C 325.953125 214.121094 332.003906 212.609375 332.003906 212.609375 C 330.378906 211.628906 323.679688 214.003906 323.679688 214.003906 C 324.007812 212.0625 329.515625 209.152344 329.515625 209.152344 C 326.601562 208.820312 319.902344 212.710938 319.902344 212.710938 C 319.792969 211.195312 322.601562 208.820312 322.601562 208.820312 C 321.519531 209.253906 320.984375 209.683594 320.984375 209.683594 C 319.039062 211.84375 313.855469 212.277344 311.148438 211.84375 C 308.453125 211.414062 313.742188 209.800781 313.742188 209.800781 C 313.09375 207.308594 306.394531 206.34375 306.394531 206.34375 C 305.210938 202.554688 296.136719 203.101562 296.136719 203.101562 C 296.890625 200.292969 296.785156 195.207031 296.785156 195.207031 C 294.511719 200.078125 293.761719 198.070312 293.761719 198.070312 C 293.863281 196.609375 293.113281 194.558594 293.113281 194.558594 C 293.113281 195.972656 292.351562 197.585938 292.351562 197.585938 C 292.566406 196.074219 291.703125 194.675781 291.703125 194.675781 C 291.816406 199.644531 287.925781 197.914062 288.464844 197.152344 C 289.007812 196.402344 289.007812 195.753906 289.007812 195.753906 C 289.007812 195.753906 286.519531 196.621094 286.949219 195.753906 C 287.382812 194.890625 289.757812 194.992188 289.757812 194.992188 C 289.542969 193.164062 281.875 192.832031 281.875 192.832031 C 281.875 192.832031 280.035156 191.320312 278.308594 191.648438 C 276.578125 191.96875 272.90625 190.671875 271.503906 190.671875 C 270.097656 190.671875 265.238281 189.765625 265.238281 189.765625 C 265.238281 189.765625 262.320312 188.839844 258.757812 189.589844 C 255.1875 190.351562 254.003906 188.410156 254.003906 188.410156 C 251.730469 185.601562 241.90625 181.378906 239.960938 181.0625 C 238.015625 180.730469 233.800781 178.570312 233.800781 178.570312 C 233.800781 178.570312 224.1875 173.167969 221.484375 173.601562 C 218.785156 174.035156 215.546875 171.875 214.898438 170.792969 C 214.25 169.710938 215.433594 169.496094 215.433594 169.496094 C 214.570312 169.28125 212.519531 169.496094 212.519531 169.496094 C 211.441406 168.097656 204.199219 165.074219 204.199219 165.074219 C 203.230469 162.695312 199.773438 161.71875 199.773438 161.71875 C 200.957031 160.535156 200.851562 158.910156 200.851562 158.910156 C 199.878906 159.773438 198.582031 160.207031 198.582031 160.207031 C 200.253906 158.53125 200.820312 156.757812 200.84375 156.652344 C 200.507812 156.863281 192.503906 161.933594 191.449219 156.648438 C 190.371094 151.246094 185.082031 147.457031 185.082031 147.457031 C 184.648438 143.136719 179.679688 141.738281 181.726562 141.839844 C 183.785156 141.957031 184 141.625 184 141.625 C 186.695312 143.035156 176.757812 137.203125 177.40625 136.65625 C 178.054688 136.121094 179.351562 136.65625 179.351562 136.65625 C 177.40625 134.394531 171.683594 134.496094 172.117188 134.0625 C 172.546875 133.628906 174.164062 133.097656 174.164062 133.097656 C 172.4375 131.367188 167.828125 129.890625 167.828125 129.890625 C 169.109375 127.496094 174.542969 127.960938 174.542969 127.960938 C 173.792969 126.5625 168.226562 126.5625 168.226562 126.5625 C 170.476562 126.265625 173.933594 124.996094 174.554688 124.753906 C 173.085938 125.195312 169.84375 124.988281 169.84375 124.988281 C 170.707031 124.9375 172.546875 123.476562 172.546875 123.476562 C 170.984375 123.589844 168.175781 122.992188 168.175781 122.992188 C 171.632812 122.179688 174.164062 120.726562 174.164062 120.726562 C 172.597656 121.261719 168.117188 120.726562 168.117188 120.726562 C 170.769531 118.722656 179.03125 119.75 179.03125 119.75 C 178.269531 118.351562 167.828125 118.402344 167.828125 118.402344 C 171.320312 117.972656 177.621094 115.914062 177.621094 115.914062 C 175.789062 116.027344 167.363281 114.730469 167.363281 114.730469 C 172.546875 114.945312 176.542969 113.867188 176.542969 113.867188 C 171.140625 113.652344 167.828125 110.511719 167.828125 110.511719 C 169.460938 109.90625 169.523438 109.777344 169.523438 109.761719 C 166.820312 109.214844 163.792969 107.167969 163.792969 107.167969 C 166.601562 106.839844 170.707031 105.871094 170.707031 105.871094 C 165.417969 105.871094 161.746094 103.8125 161.746094 103.8125 C 164.011719 103.382812 176.003906 97.332031 174.710938 95.820312 C 173.414062 94.304688 161.417969 93.65625 161.417969 93.65625 C 161.417969 93.65625 156.128906 91.613281 153.421875 92.042969 C 150.726562 92.476562 143.699219 86.742188 141.972656 84.480469 C 140.242188 82.207031 137.578125 81.921875 137.578125 81.921875 C 132.914062 79.730469 122.371094 81.972656 121.386719 82.191406 C 120.738281 82.292969 119.050781 82.675781 116.589844 83.980469 C 113.378906 85.675781 102.734375 80.195312 100.546875 80.0625 C 98.359375 79.933594 96.027344 78.101562 94.421875 80.0625 C 92.820312 82.019531 93.695312 82.542969 93.695312 82.542969 C 93.695312 82.542969 89.191406 85.230469 94.703125 89.960938 C 94.4375 90.445312 94.222656 91.386719 94.566406 92.4375 C 94.566406 92.4375 95.164062 91.417969 95.699219 90.738281 C 101.746094 95.308594 102.632812 91.691406 106.832031 95.402344 C 111.117188 99.191406 113.234375 101.402344 110.390625 103.164062 C 107.546875 104.929688 102.808594 104.871094 101.351562 105.90625 C 100.382812 106.597656 96.328125 105.578125 93.53125 105.148438 C 93.28125 104.316406 93.085938 103.0625 93.085938 103.0625 C 92.554688 103.730469 92.34375 104.460938 92.320312 105.007812 C 91.496094 104.929688 90.921875 104.980469 90.78125 105.257812 C 90.78125 105.257812 89.753906 107.867188 94.207031 110.347656 C 94.207031 110.347656 95.664062 111.324219 102.078125 111.523438 C 106.035156 111.644531 110.3125 113.121094 113.019531 114.246094 L 113.003906 114.316406 C 116.476562 115.8125 114.59375 117.703125 114.59375 117.703125 C 111.972656 118.402344 109.546875 121.167969 109.226562 121.558594 C 109.398438 121.417969 110.269531 120.761719 113.296875 119.484375 C 116.753906 118.023438 115.179688 121.046875 115.179688 121.046875 C 113.546875 121.910156 112.257812 125.015625 111.886719 125.984375 C 112.492188 124.875 115.34375 123.691406 115.34375 123.691406 C 114.316406 124.71875 114.425781 127.097656 114.425781 127.097656 C 115.074219 124.453125 115.722656 124.988281 115.722656 124.988281 C 114.964844 126.285156 116.804688 128.875 116.804688 128.875 C 115.074219 130.820312 115.828125 136.554688 116.261719 137.085938 C 116.691406 137.632812 118.636719 139.144531 117.019531 139.792969 C 115.394531 140.441406 113.667969 146.277344 114.316406 151.246094 C 114.964844 156.214844 113.234375 161.070312 113.234375 161.070312 C 113.234375 161.070312 109.457031 158.59375 104.59375 156.863281 C 99.734375 155.136719 96.816406 157.726562 96.816406 157.726562 C 96.816406 157.726562 91.09375 160.96875 88.933594 160.96875 C 86.769531 160.96875 81.152344 162.914062 75.75 166.902344 C 70.351562 170.90625 71.320312 175.878906 71.535156 177.058594 C 71.75 178.253906 79.960938 178.253906 82.769531 178.039062 C 85.578125 177.820312 83.636719 175.546875 85.578125 175.761719 C 87.523438 175.976562 86.554688 174.363281 90.226562 173.714844 C 93.902344 173.066406 95.199219 170.578125 95.949219 172.203125 C 96.710938 173.816406 97.679688 172.304688 97.679688 172.304688 C 97.789062 170.792969 99.839844 171.65625 99.839844 171.65625 C 99.304688 173.601562 101.464844 175.332031 101.464844 175.332031 C 101.246094 172.421875 103.40625 174.464844 103.40625 174.464844 C 102.976562 175.878906 104.703125 177.921875 104.703125 177.921875 C 104.921875 175.660156 105.890625 176.84375 105.890625 176.84375 C 106 180.082031 110.105469 180.847656 110.105469 182.890625 C 110.105469 184.820312 113.527344 187.308594 113.953125 187.613281 C 112.882812 186.671875 111.574219 177.941406 116.691406 187.644531 C 121.878906 197.484375 129.984375 199.53125 129.984375 199.53125 C 128.902344 198.882812 129.65625 196.1875 130.953125 198.234375 C 132.25 200.292969 138.300781 199.960938 138.300781 199.960938 C 137.21875 197.699219 138.300781 198.5625 138.300781 198.5625 C 142.1875 200.292969 150.292969 217.578125 150.292969 217.578125 C 151.417969 216.027344 149.617188 212.433594 149.445312 212.089844 C 152.480469 216.28125 157.746094 216.714844 157.746094 216.714844 C 157.746094 216.714844 150.613281 213.472656 155.367188 212.925781 C 160.121094 212.390625 167.148438 220.386719 167.148438 220.386719 C 166.714844 218.542969 164.660156 217.144531 164.660156 217.144531 C 167.035156 217.460938 169.523438 220.386719 169.523438 220.386719 C 169.628906 218.976562 167.828125 216.929688 167.828125 216.929688 C 172.398438 217.359375 175.894531 223.296875 175.894531 223.296875 C 176.222656 221.351562 174.710938 218.226562 174.710938 218.226562 C 176.972656 218.875 179.78125 220.054688 179.78125 220.054688 C 177.734375 217.359375 176.003906 215.847656 183.351562 217.679688 C 190.699219 219.523438 190.480469 229.5625 190.480469 229.5625 C 192.765625 227.367188 192.027344 224.945312 191.75 224.253906 C 192.609375 225.847656 197.285156 227.832031 197.285156 227.832031 C 196.636719 226.867188 196.636719 225.355469 196.636719 225.355469 C 197.933594 226.96875 201.820312 227.949219 201.820312 227.949219 C 200.308594 226.539062 200.203125 223.726562 200.203125 223.726562 C 203.011719 226.96875 207.984375 226.320312 207.984375 226.320312 C 203.117188 224.273438 202.796875 222.449219 202.796875 222.449219 C 202.253906 215.121094 210.464844 225.789062 210.464844 225.789062 C 210.574219 224.273438 211.976562 224.160156 211.976562 224.160156 C 211.65625 225.140625 212.625 227.300781 212.625 227.300781 C 212.734375 226.003906 214.25 225.242188 214.25 225.242188 C 213.601562 226.539062 214.785156 228.699219 214.785156 228.699219 C 214.570312 227.300781 216.410156 225.890625 216.410156 225.890625 C 216.515625 227.300781 217.273438 227.949219 217.273438 227.949219 C 216.945312 226.4375 218.242188 225.671875 218.242188 225.671875 C 220.515625 228.480469 234.125 234.316406 234.015625 237.554688 C 233.910156 240.796875 248.058594 252.25 249.25 256.683594 C 250.4375 261.109375 276.476562 272.773438 276.476562 272.773438 C 280.582031 273.207031 290.304688 277.960938 292.03125 279.257812 C 293.761719 280.554688 299.59375 284.773438 299.59375 284.773438 C 299.59375 284.773438 311.476562 296.222656 312.664062 300.648438 C 313.855469 305.082031 324.328125 313.726562 328.433594 314.691406 C 332.539062 315.671875 334.917969 314.15625 332.972656 313.941406 C 331.027344 313.726562 330.707031 313.179688 330.707031 313.179688 C 333.40625 311.449219 331.140625 307.34375 332.003906 304.21875 C 332.867188 301.078125 331.140625 302.273438 330.707031 301.625 C 330.273438 300.976562 332.324219 299.78125 329.949219 299.464844 C 327.570312 299.132812 325.519531 298.386719 325.519531 298.386719 C 326.921875 297.621094 324.113281 294.710938 322.816406 294.164062 C 321.519531 293.632812 316.015625 288.980469 316.015625 286.820312 C 316.015625 284.660156 312.988281 279.585938 310.285156 277.960938 C 307.589844 276.347656 309.207031 276.5625 308.453125 274.070312 C 307.691406 271.59375 294.296875 268.023438 300.128906 268.453125 C 305.78125 268.867188 308.390625 271.722656 308.546875 271.902344 C 305.4375 266.996094 294.960938 264.695312 293.023438 264.296875 C 293.128906 264.308594 293.265625 264.332031 293.433594 264.359375 C 297.648438 265.007812 301.324219 264.347656 301.324219 264.347656 C 299.265625 264.464844 291.167969 262.226562 291.167969 262.226562 C 298.402344 263.21875 303.804688 262.1875 303.804688 262.1875 C 297.433594 262.621094 286.734375 258.082031 286.734375 258.082031 C 292.523438 255.976562 298.417969 260.546875 298.71875 260.78125 C 297.292969 257.324219 283.390625 254.308594 283.390625 254.308594 C 285.550781 253.445312 285.65625 252.578125 285.65625 252.578125 C 282.09375 252.796875 279.066406 251.066406 279.066406 251.066406 C 283.605469 251.285156 285.65625 246.53125 285.65625 246.53125 C 282.308594 246.960938 281.117188 243.175781 281.117188 243.175781 C 284.683594 243.390625 286.519531 240.914062 286.519531 240.914062 C 285.222656 240.695312 284.140625 239.933594 284.140625 239.933594 C 291.273438 235.828125 293.976562 239.183594 293.976562 239.183594 C 293.863281 234.746094 291.816406 233.78125 291.816406 233.78125 C 294.382812 233.097656 295.773438 231.621094 296.449219 230.609375 C 296.523438 230.773438 296.601562 230.9375 296.671875 231.074219 C 298.730469 235.394531 306.613281 239.5 306.613281 239.5 C 305.859375 238.203125 308.453125 236.910156 308.773438 237.988281 C 309.082031 239 311.941406 241.152344 312.308594 241.421875 C 311.167969 240.347656 312.015625 239.617188 312.015625 239.617188 C 315.253906 239.398438 318.605469 244.800781 318.605469 244.800781 C 323.464844 249.007812 324.546875 244.46875 328.546875 248.042969 C 332.539062 251.601562 340.535156 249.441406 340.535156 249.441406 C 337.898438 248.835938 335.84375 247.375 335.589844 247.195312 C 342.390625 250.839844 347.558594 246.3125 347.558594 246.3125 C 338.917969 246.746094 334.699219 241.445312 334.699219 241.445312 C 343.558594 248.691406 349.175781 244.585938 349.175781 244.585938 C 341.398438 244.6875 340.75 241.992188 340.75 241.992188 C 347.128906 245.765625 349.71875 242.09375 349.71875 242.09375 C 348.097656 241.777344 348.640625 239.832031 348.640625 239.832031 C 349.503906 240.265625 351.121094 240.367188 351.121094 240.367188 C 350.800781 239.070312 351.335938 238.320312 351.335938 238.320312 C 361.527344 245.75 358.070312 248.386719 357.648438 248.664062 C 359.996094 247.488281 359.832031 245.40625 358.761719 243.304688 C 361.34375 247.582031 360.695312 250.066406 360.636719 250.289062 C 362.882812 247.152344 358.25 239.832031 358.25 239.832031 C 359.765625 240.367188 365.0625 246.3125 365.0625 246.3125 C 364.300781 243.390625 354.691406 234.429688 354.691406 234.429688 C 359.546875 234.097656 367.871094 242.308594 367.871094 242.308594 C 367.652344 240.914062 360.957031 234.746094 360.957031 234.746094 C 368.734375 238.75 370.136719 246.3125 370.136719 246.3125 C 371 243.175781 363.222656 233.566406 363.222656 233.566406 C 366.40625 233.9375 368.605469 233.726562 370.117188 233.328125 " fill-opacity="1" fill-rule="nonzero"/></g><g clip-path="url(#fd487c0e70)"><path fill="#8c52ff" d="M 56.167969 67.222656 L 51.867188 66.582031 C 51.390625 66.507812 50.304688 66.195312 49.960938 65.882812 C 49.285156 65.277344 47.722656 64.710938 47.007812 64.601562 L 13.328125 59.605469 C 12.605469 59.5 10.765625 59.585938 9.976562 60.003906 C 9.628906 60.183594 9.214844 60.230469 8.8125 60.171875 L 4.152344 59.476562 C 3.152344 59.328125 0.507812 60.679688 0.28125 61.550781 C 0.0234375 62.554688 2.449219 62.714844 3.566406 62.878906 L 55.734375 70.726562 C 56.902344 70.902344 58.855469 71.003906 58.894531 69.945312 C 58.933594 69.023438 57.210938 67.375 56.167969 67.222656 " fill-opacity="1" fill-rule="nonzero"/></g></svg>