<svg xmlns="http://www.w3.org/2000/svg" xmlns:xlink="http://www.w3.org/1999/xlink" width="500" zoomAndPan="magnify" viewBox="0 0 375 374.999991" height="500" preserveAspectRatio="xMidYMid meet" version="1.0"><defs><clipPath id="0d443af8a3"><path d="M 190 9.40625 L 256 9.40625 L 256 75 L 190 75 Z M 190 9.40625 " clip-rule="nonzero"/></clipPath><clipPath id="e1e40edbba"><path d="M 262 106 L 327.140625 106 L 327.140625 172 L 262 172 Z M 262 106 " clip-rule="nonzero"/></clipPath><clipPath id="e3f7472e2a"><path d="M 48.140625 203 L 114 203 L 114 269 L 48.140625 269 Z M 48.140625 203 " clip-rule="nonzero"/></clipPath><clipPath id="0b61eec05f"><path d="M 119 300 L 185 300 L 185 365.65625 L 119 365.65625 Z M 119 300 " clip-rule="nonzero"/></clipPath><clipPath id="8c867b8649"><path d="M 262 300 L 327.140625 300 L 327.140625 365.65625 L 262 365.65625 Z M 262 300 " clip-rule="nonzero"/></clipPath></defs><path fill="#2b3660" d="M 198.28125 62.125 L 160.777344 107.925781 C 165.132812 109.164062 169.082031 111.269531 172.492188 114.070312 L 208.257812 70.390625 C 208.585938 70.5625 208.945312 70.695312 209.28125 70.855469 C 204.984375 68.78125 201.261719 65.789062 198.28125 62.125 Z M 198.28125 62.125 " fill-opacity="1" fill-rule="nonzero"/><path fill="#2b3660" d="M 285.816406 107.933594 L 248.3125 62.132812 C 245.324219 65.789062 241.609375 68.789062 237.3125 70.867188 C 237.648438 70.707031 238 70.578125 238.335938 70.402344 L 274.101562 114.085938 C 277.511719 111.269531 281.460938 109.167969 285.816406 107.933594 Z M 285.816406 107.933594 " fill-opacity="1" fill-rule="nonzero"/><path fill="#2b3660" d="M 214.507812 205.089844 L 177.003906 159.289062 C 174.015625 162.949219 170.300781 165.949219 166 168.027344 C 166.339844 167.867188 166.6875 167.738281 167.027344 167.5625 L 202.792969 211.246094 C 206.203125 208.425781 210.148438 206.328125 214.507812 205.089844 Z M 214.507812 205.089844 " fill-opacity="1" fill-rule="nonzero"/><path fill="#2b3660" d="M 126.96875 159.285156 L 89.464844 205.085938 C 93.824219 206.320312 97.769531 208.425781 101.179688 211.230469 L 136.945312 167.546875 C 137.277344 167.722656 137.632812 167.851562 137.96875 168.015625 C 133.671875 165.941406 129.949219 162.949219 126.96875 159.285156 Z M 126.96875 159.285156 " fill-opacity="1" fill-rule="nonzero"/><path fill="#2b3660" d="M 198.28125 256.441406 L 160.777344 302.242188 C 165.132812 303.480469 169.082031 305.585938 172.492188 308.390625 L 208.257812 264.707031 C 208.585938 264.882812 208.945312 265.011719 209.28125 265.175781 C 204.984375 263.101562 201.261719 260.109375 198.28125 256.441406 Z M 198.28125 256.441406 " fill-opacity="1" fill-rule="nonzero"/><path fill="#2b3660" d="M 285.816406 302.25 L 248.3125 256.449219 C 245.324219 260.109375 241.609375 263.109375 237.3125 265.1875 C 237.648438 265.023438 238 264.894531 238.335938 264.71875 L 274.101562 308.402344 C 277.511719 305.585938 281.460938 303.488281 285.816406 302.25 Z M 285.816406 302.25 " fill-opacity="1" fill-rule="nonzero"/><g clip-path="url(#0d443af8a3)"><path fill="#2b3660" d="M 255.710938 41.792969 C 255.710938 42.851562 255.660156 43.910156 255.554688 44.964844 C 255.449219 46.023438 255.296875 47.070312 255.089844 48.109375 C 254.882812 49.152344 254.625 50.179688 254.316406 51.195312 C 254.007812 52.207031 253.648438 53.207031 253.242188 54.1875 C 252.835938 55.167969 252.382812 56.125 251.882812 57.058594 C 251.382812 57.996094 250.835938 58.902344 250.25 59.785156 C 249.660156 60.667969 249.027344 61.519531 248.351562 62.339844 C 247.679688 63.15625 246.96875 63.941406 246.21875 64.691406 C 245.464844 65.441406 244.679688 66.15625 243.859375 66.828125 C 243.039062 67.5 242.1875 68.132812 241.304688 68.71875 C 240.421875 69.308594 239.511719 69.855469 238.578125 70.355469 C 237.640625 70.855469 236.683594 71.308594 235.699219 71.714844 C 234.71875 72.121094 233.722656 72.476562 232.707031 72.785156 C 231.691406 73.09375 230.660156 73.347656 229.621094 73.554688 C 228.578125 73.761719 227.53125 73.917969 226.472656 74.023438 C 225.417969 74.125 224.359375 74.179688 223.296875 74.179688 C 222.234375 74.179688 221.175781 74.125 220.121094 74.023438 C 219.0625 73.917969 218.015625 73.761719 216.972656 73.554688 C 215.933594 73.347656 214.902344 73.09375 213.886719 72.785156 C 212.871094 72.476562 211.875 72.121094 210.890625 71.714844 C 209.910156 71.308594 208.953125 70.855469 208.015625 70.355469 C 207.082031 69.855469 206.171875 69.308594 205.289062 68.71875 C 204.40625 68.132812 203.554688 67.5 202.734375 66.828125 C 201.914062 66.15625 201.128906 65.441406 200.375 64.691406 C 199.625 63.941406 198.914062 63.15625 198.242188 62.339844 C 197.566406 61.519531 196.933594 60.667969 196.34375 59.785156 C 195.753906 58.902344 195.210938 57.996094 194.710938 57.058594 C 194.210938 56.125 193.757812 55.167969 193.351562 54.1875 C 192.945312 53.207031 192.585938 52.207031 192.277344 51.195312 C 191.96875 50.179688 191.710938 49.152344 191.503906 48.109375 C 191.296875 47.070312 191.144531 46.023438 191.039062 44.964844 C 190.933594 43.910156 190.882812 42.851562 190.882812 41.792969 C 190.882812 40.730469 190.933594 39.671875 191.039062 38.617188 C 191.144531 37.5625 191.296875 36.515625 191.503906 35.472656 C 191.710938 34.433594 191.96875 33.40625 192.277344 32.390625 C 192.585938 31.375 192.945312 30.378906 193.351562 29.398438 C 193.757812 28.417969 194.210938 27.460938 194.710938 26.527344 C 195.210938 25.589844 195.753906 24.679688 196.34375 23.800781 C 196.933594 22.917969 197.566406 22.066406 198.242188 21.246094 C 198.914062 20.425781 199.625 19.640625 200.375 18.890625 C 201.128906 18.140625 201.914062 17.429688 202.734375 16.757812 C 203.554688 16.085938 204.40625 15.453125 205.289062 14.863281 C 206.171875 14.273438 207.082031 13.730469 208.015625 13.230469 C 208.953125 12.730469 209.910156 12.277344 210.890625 11.871094 C 211.875 11.464844 212.871094 11.109375 213.886719 10.800781 C 214.902344 10.492188 215.933594 10.234375 216.972656 10.027344 C 218.015625 9.820312 219.0625 9.664062 220.121094 9.5625 C 221.175781 9.457031 222.234375 9.40625 223.296875 9.40625 C 224.359375 9.40625 225.417969 9.457031 226.472656 9.5625 C 227.53125 9.664062 228.578125 9.820312 229.621094 10.027344 C 230.660156 10.234375 231.691406 10.492188 232.707031 10.800781 C 233.722656 11.109375 234.71875 11.464844 235.699219 11.871094 C 236.683594 12.277344 237.640625 12.730469 238.578125 13.230469 C 239.511719 13.730469 240.421875 14.273438 241.304688 14.863281 C 242.1875 15.453125 243.039062 16.085938 243.859375 16.757812 C 244.679688 17.429688 245.464844 18.140625 246.21875 18.890625 C 246.96875 19.640625 247.679688 20.425781 248.351562 21.246094 C 249.027344 22.066406 249.660156 22.917969 250.25 23.800781 C 250.835938 24.679688 251.382812 25.589844 251.882812 26.527344 C 252.382812 27.460938 252.835938 28.417969 253.242188 29.398438 C 253.648438 30.378906 254.007812 31.375 254.316406 32.390625 C 254.625 33.40625 254.882812 34.433594 255.089844 35.472656 C 255.296875 36.515625 255.449219 37.5625 255.554688 38.617188 C 255.660156 39.671875 255.710938 40.730469 255.710938 41.792969 Z M 255.710938 41.792969 " fill-opacity="1" fill-rule="nonzero"/></g><path fill="#3f4f8c" d="M 184.398438 138.953125 C 184.398438 140.011719 184.347656 141.070312 184.242188 142.125 C 184.140625 143.179688 183.984375 144.230469 183.777344 145.269531 C 183.570312 146.308594 183.3125 147.335938 183.003906 148.351562 C 182.695312 149.367188 182.339844 150.363281 181.933594 151.34375 C 181.527344 152.324219 181.074219 153.28125 180.574219 154.21875 C 180.070312 155.152344 179.527344 156.0625 178.9375 156.945312 C 178.347656 157.828125 177.714844 158.675781 177.042969 159.496094 C 176.367188 160.316406 175.65625 161.101562 174.90625 161.851562 C 174.15625 162.601562 173.371094 163.3125 172.550781 163.988281 C 171.730469 164.660156 170.878906 165.289062 169.996094 165.878906 C 169.113281 166.46875 168.203125 167.011719 167.265625 167.511719 C 166.328125 168.011719 165.371094 168.464844 164.390625 168.871094 C 163.410156 169.277344 162.410156 169.636719 161.394531 169.941406 C 160.378906 170.25 159.351562 170.507812 158.308594 170.714844 C 157.269531 170.921875 156.21875 171.078125 155.164062 171.183594 C 154.105469 171.285156 153.046875 171.335938 151.984375 171.335938 C 150.925781 171.335938 149.867188 171.285156 148.808594 171.183594 C 147.753906 171.078125 146.703125 170.921875 145.664062 170.714844 C 144.621094 170.507812 143.59375 170.25 142.578125 169.941406 C 141.5625 169.636719 140.5625 169.277344 139.582031 168.871094 C 138.601562 168.464844 137.640625 168.011719 136.707031 167.511719 C 135.769531 167.011719 134.859375 166.46875 133.976562 165.878906 C 133.09375 165.289062 132.242188 164.660156 131.421875 163.988281 C 130.601562 163.3125 129.816406 162.601562 129.066406 161.851562 C 128.316406 161.101562 127.601562 160.316406 126.929688 159.496094 C 126.257812 158.675781 125.625 157.828125 125.035156 156.945312 C 124.445312 156.0625 123.898438 155.152344 123.398438 154.21875 C 122.898438 153.28125 122.445312 152.324219 122.039062 151.34375 C 121.632812 150.363281 121.277344 149.367188 120.96875 148.351562 C 120.660156 147.335938 120.402344 146.308594 120.195312 145.269531 C 119.988281 144.230469 119.832031 143.179688 119.726562 142.125 C 119.625 141.070312 119.570312 140.011719 119.570312 138.953125 C 119.570312 137.890625 119.625 136.832031 119.726562 135.777344 C 119.832031 134.722656 119.988281 133.671875 120.195312 132.632812 C 120.402344 131.59375 120.660156 130.566406 120.96875 129.550781 C 121.277344 128.535156 121.632812 127.539062 122.039062 126.558594 C 122.445312 125.578125 122.898438 124.621094 123.398438 123.683594 C 123.898438 122.75 124.445312 121.839844 125.035156 120.957031 C 125.625 120.078125 126.257812 119.226562 126.929688 118.40625 C 127.601562 117.585938 128.316406 116.800781 129.066406 116.050781 C 129.816406 115.300781 130.601562 114.589844 131.421875 113.917969 C 132.242188 113.242188 133.09375 112.613281 133.976562 112.023438 C 134.859375 111.433594 135.769531 110.890625 136.707031 110.390625 C 137.640625 109.890625 138.601562 109.4375 139.582031 109.03125 C 140.5625 108.625 141.5625 108.265625 142.578125 107.960938 C 143.59375 107.652344 144.621094 107.394531 145.664062 107.1875 C 146.703125 106.980469 147.753906 106.824219 148.808594 106.722656 C 149.867188 106.617188 150.925781 106.566406 151.984375 106.566406 C 153.046875 106.566406 154.105469 106.617188 155.164062 106.722656 C 156.21875 106.824219 157.269531 106.980469 158.308594 107.1875 C 159.351562 107.394531 160.378906 107.652344 161.394531 107.960938 C 162.410156 108.265625 163.410156 108.625 164.390625 109.03125 C 165.371094 109.4375 166.328125 109.890625 167.265625 110.390625 C 168.203125 110.890625 169.113281 111.433594 169.996094 112.023438 C 170.875 112.613281 171.730469 113.242188 172.550781 113.917969 C 173.371094 114.589844 174.15625 115.300781 174.90625 116.050781 C 175.65625 116.800781 176.367188 117.585938 177.042969 118.40625 C 177.714844 119.226562 178.347656 120.078125 178.9375 120.957031 C 179.527344 121.839844 180.070312 122.75 180.574219 123.683594 C 181.074219 124.621094 181.527344 125.578125 181.933594 126.558594 C 182.339844 127.539062 182.695312 128.535156 183.003906 129.550781 C 183.3125 130.566406 183.570312 131.59375 183.777344 132.632812 C 183.984375 133.671875 184.140625 134.722656 184.242188 135.777344 C 184.347656 136.832031 184.398438 137.890625 184.398438 138.953125 Z M 184.398438 138.953125 " fill-opacity="1" fill-rule="nonzero"/><g clip-path="url(#e1e40edbba)"><path fill="#3f4f8c" d="M 327.023438 138.953125 C 327.023438 140.011719 326.96875 141.070312 326.867188 142.125 C 326.761719 143.179688 326.605469 144.230469 326.398438 145.269531 C 326.191406 146.308594 325.933594 147.335938 325.625 148.351562 C 325.316406 149.367188 324.960938 150.363281 324.554688 151.34375 C 324.148438 152.324219 323.695312 153.28125 323.195312 154.21875 C 322.695312 155.152344 322.148438 156.0625 321.558594 156.945312 C 320.96875 157.828125 320.335938 158.675781 319.664062 159.496094 C 318.992188 160.316406 318.277344 161.101562 317.527344 161.851562 C 316.777344 162.601562 315.992188 163.3125 315.171875 163.988281 C 314.351562 164.660156 313.5 165.289062 312.617188 165.878906 C 311.734375 166.46875 310.824219 167.011719 309.886719 167.511719 C 308.953125 168.011719 307.992188 168.464844 307.011719 168.871094 C 306.03125 169.277344 305.03125 169.636719 304.015625 169.941406 C 303 170.25 301.972656 170.507812 300.929688 170.714844 C 299.890625 170.921875 298.839844 171.078125 297.785156 171.183594 C 296.726562 171.285156 295.667969 171.335938 294.609375 171.335938 C 293.546875 171.335938 292.488281 171.285156 291.429688 171.183594 C 290.375 171.078125 289.324219 170.921875 288.285156 170.714844 C 287.242188 170.507812 286.214844 170.25 285.199219 169.941406 C 284.183594 169.636719 283.183594 169.277344 282.203125 168.871094 C 281.222656 168.464844 280.265625 168.011719 279.328125 167.511719 C 278.390625 167.011719 277.480469 166.46875 276.597656 165.878906 C 275.714844 165.289062 274.863281 164.660156 274.042969 163.988281 C 273.222656 163.3125 272.4375 162.601562 271.6875 161.851562 C 270.9375 161.101562 270.226562 160.316406 269.550781 159.496094 C 268.878906 158.675781 268.246094 157.828125 267.65625 156.945312 C 267.066406 156.0625 266.519531 155.152344 266.019531 154.21875 C 265.519531 153.28125 265.066406 152.324219 264.660156 151.34375 C 264.253906 150.363281 263.898438 149.367188 263.589844 148.351562 C 263.28125 147.335938 263.023438 146.308594 262.816406 145.269531 C 262.609375 144.230469 262.453125 143.179688 262.351562 142.125 C 262.246094 141.070312 262.195312 140.011719 262.195312 138.953125 C 262.195312 137.890625 262.246094 136.832031 262.351562 135.777344 C 262.453125 134.722656 262.609375 133.671875 262.816406 132.632812 C 263.023438 131.59375 263.28125 130.566406 263.589844 129.550781 C 263.898438 128.535156 264.253906 127.539062 264.660156 126.558594 C 265.066406 125.578125 265.519531 124.621094 266.019531 123.683594 C 266.519531 122.75 267.066406 121.839844 267.65625 120.957031 C 268.246094 120.078125 268.878906 119.226562 269.550781 118.40625 C 270.226562 117.585938 270.9375 116.800781 271.6875 116.050781 C 272.4375 115.300781 273.222656 114.589844 274.042969 113.917969 C 274.863281 113.242188 275.714844 112.613281 276.597656 112.023438 C 277.480469 111.433594 278.390625 110.890625 279.328125 110.390625 C 280.265625 109.890625 281.222656 109.4375 282.203125 109.03125 C 283.183594 108.625 284.183594 108.265625 285.199219 107.960938 C 286.214844 107.652344 287.242188 107.394531 288.285156 107.1875 C 289.324219 106.980469 290.375 106.824219 291.429688 106.722656 C 292.488281 106.617188 293.546875 106.566406 294.609375 106.566406 C 295.667969 106.566406 296.726562 106.617188 297.785156 106.722656 C 298.839844 106.824219 299.890625 106.980469 300.929688 107.1875 C 301.972656 107.394531 303 107.652344 304.015625 107.960938 C 305.03125 108.265625 306.03125 108.625 307.011719 109.03125 C 307.992188 109.4375 308.953125 109.890625 309.886719 110.390625 C 310.824219 110.890625 311.734375 111.433594 312.617188 112.023438 C 313.5 112.613281 314.351562 113.242188 315.171875 113.917969 C 315.992188 114.589844 316.777344 115.300781 317.527344 116.050781 C 318.277344 116.800781 318.992188 117.585938 319.664062 118.40625 C 320.335938 119.226562 320.96875 120.078125 321.558594 120.957031 C 322.148438 121.839844 322.695312 122.75 323.195312 123.683594 C 323.695312 124.621094 324.148438 125.578125 324.554688 126.558594 C 324.960938 127.539062 325.316406 128.535156 325.625 129.550781 C 325.933594 130.566406 326.191406 131.59375 326.398438 132.632812 C 326.605469 133.671875 326.761719 134.722656 326.867188 135.777344 C 326.96875 136.832031 327.023438 137.890625 327.023438 138.953125 Z M 327.023438 138.953125 " fill-opacity="1" fill-rule="nonzero"/></g><g clip-path="url(#e3f7472e2a)"><path fill="#8ba0f0" d="M 113.089844 236.109375 C 113.089844 237.171875 113.039062 238.230469 112.933594 239.285156 C 112.828125 240.339844 112.671875 241.386719 112.464844 242.429688 C 112.257812 243.46875 112 244.496094 111.695312 245.511719 C 111.386719 246.527344 111.027344 247.523438 110.621094 248.503906 C 110.214844 249.484375 109.761719 250.441406 109.261719 251.378906 C 108.761719 252.3125 108.214844 253.222656 107.625 254.101562 C 107.035156 254.984375 106.40625 255.835938 105.730469 256.65625 C 105.058594 257.476562 104.347656 258.261719 103.59375 259.011719 C 102.84375 259.761719 102.058594 260.472656 101.238281 261.144531 C 100.417969 261.820312 99.566406 262.449219 98.683594 263.039062 C 97.800781 263.628906 96.890625 264.171875 95.953125 264.671875 C 95.019531 265.171875 94.058594 265.625 93.078125 266.03125 C 92.097656 266.4375 91.101562 266.792969 90.085938 267.101562 C 89.070312 267.410156 88.039062 267.667969 87 267.875 C 85.957031 268.082031 84.910156 268.238281 83.851562 268.339844 C 82.796875 268.445312 81.738281 268.496094 80.675781 268.496094 C 79.613281 268.496094 78.554688 268.445312 77.5 268.339844 C 76.441406 268.238281 75.394531 268.082031 74.351562 267.875 C 73.308594 267.667969 72.28125 267.410156 71.265625 267.101562 C 70.25 266.792969 69.25 266.4375 68.269531 266.03125 C 67.289062 265.625 66.332031 265.171875 65.394531 264.671875 C 64.460938 264.171875 63.550781 263.628906 62.667969 263.039062 C 61.785156 262.449219 60.933594 261.820312 60.113281 261.144531 C 59.292969 260.472656 58.503906 259.761719 57.753906 259.011719 C 57.003906 258.261719 56.292969 257.476562 55.617188 256.65625 C 54.945312 255.835938 54.3125 254.984375 53.722656 254.101562 C 53.132812 253.222656 52.589844 252.3125 52.089844 251.378906 C 51.589844 250.441406 51.136719 249.484375 50.730469 248.503906 C 50.324219 247.523438 49.964844 246.527344 49.65625 245.511719 C 49.347656 244.496094 49.089844 243.46875 48.882812 242.429688 C 48.675781 241.386719 48.519531 240.339844 48.417969 239.285156 C 48.3125 238.230469 48.261719 237.171875 48.261719 236.109375 C 48.261719 235.050781 48.3125 233.992188 48.417969 232.9375 C 48.519531 231.878906 48.675781 230.832031 48.882812 229.792969 C 49.089844 228.75 49.347656 227.722656 49.65625 226.710938 C 49.964844 225.695312 50.324219 224.695312 50.730469 223.714844 C 51.136719 222.738281 51.589844 221.777344 52.089844 220.84375 C 52.589844 219.910156 53.132812 219 53.722656 218.117188 C 54.3125 217.234375 54.945312 216.382812 55.617188 215.566406 C 56.292969 214.746094 57.003906 213.960938 57.753906 213.210938 C 58.503906 212.460938 59.292969 211.75 60.113281 211.074219 C 60.933594 210.402344 61.785156 209.773438 62.667969 209.183594 C 63.550781 208.59375 64.460938 208.046875 65.394531 207.546875 C 66.332031 207.046875 67.289062 206.59375 68.269531 206.1875 C 69.25 205.785156 70.25 205.425781 71.265625 205.117188 C 72.28125 204.8125 73.308594 204.554688 74.351562 204.347656 C 75.394531 204.140625 76.441406 203.984375 77.5 203.878906 C 78.554688 203.777344 79.613281 203.722656 80.675781 203.722656 C 81.738281 203.722656 82.796875 203.777344 83.851562 203.878906 C 84.910156 203.984375 85.957031 204.140625 87 204.347656 C 88.039062 204.554688 89.070312 204.8125 90.085938 205.117188 C 91.101562 205.425781 92.097656 205.785156 93.078125 206.1875 C 94.058594 206.59375 95.019531 207.046875 95.953125 207.546875 C 96.890625 208.046875 97.800781 208.59375 98.683594 209.183594 C 99.566406 209.773438 100.417969 210.402344 101.238281 211.074219 C 102.058594 211.75 102.84375 212.460938 103.59375 213.210938 C 104.347656 213.960938 105.058594 214.746094 105.730469 215.566406 C 106.40625 216.382812 107.035156 217.234375 107.625 218.117188 C 108.214844 219 108.761719 219.910156 109.261719 220.84375 C 109.761719 221.777344 110.214844 222.738281 110.621094 223.714844 C 111.027344 224.695312 111.386719 225.695312 111.695312 226.710938 C 112 227.722656 112.257812 228.75 112.464844 229.792969 C 112.671875 230.832031 112.828125 231.878906 112.933594 232.9375 C 113.039062 233.992188 113.089844 235.050781 113.089844 236.109375 Z M 113.089844 236.109375 " fill-opacity="1" fill-rule="nonzero"/></g><path fill="#8ba0f0" d="M 255.710938 236.109375 C 255.710938 237.171875 255.660156 238.230469 255.554688 239.285156 C 255.449219 240.339844 255.296875 241.386719 255.089844 242.429688 C 254.882812 243.46875 254.625 244.496094 254.316406 245.511719 C 254.007812 246.527344 253.648438 247.523438 253.242188 248.503906 C 252.835938 249.484375 252.382812 250.441406 251.882812 251.378906 C 251.382812 252.3125 250.835938 253.222656 250.25 254.101562 C 249.660156 254.984375 249.027344 255.835938 248.351562 256.65625 C 247.679688 257.476562 246.96875 258.261719 246.21875 259.011719 C 245.464844 259.761719 244.679688 260.472656 243.859375 261.144531 C 243.039062 261.820312 242.1875 262.449219 241.304688 263.039062 C 240.421875 263.628906 239.511719 264.171875 238.578125 264.671875 C 237.640625 265.171875 236.683594 265.625 235.699219 266.03125 C 234.71875 266.4375 233.722656 266.792969 232.707031 267.101562 C 231.691406 267.410156 230.660156 267.667969 229.621094 267.875 C 228.578125 268.082031 227.53125 268.238281 226.472656 268.339844 C 225.417969 268.445312 224.359375 268.496094 223.296875 268.496094 C 222.234375 268.496094 221.175781 268.445312 220.121094 268.339844 C 219.0625 268.238281 218.015625 268.082031 216.972656 267.875 C 215.933594 267.667969 214.902344 267.410156 213.886719 267.101562 C 212.871094 266.792969 211.875 266.4375 210.890625 266.03125 C 209.910156 265.625 208.953125 265.171875 208.015625 264.671875 C 207.082031 264.171875 206.171875 263.628906 205.289062 263.039062 C 204.40625 262.449219 203.554688 261.820312 202.734375 261.144531 C 201.914062 260.472656 201.128906 259.761719 200.375 259.011719 C 199.625 258.261719 198.914062 257.476562 198.242188 256.65625 C 197.566406 255.835938 196.933594 254.984375 196.34375 254.101562 C 195.753906 253.222656 195.210938 252.3125 194.710938 251.378906 C 194.210938 250.441406 193.757812 249.484375 193.351562 248.503906 C 192.945312 247.523438 192.585938 246.527344 192.277344 245.511719 C 191.96875 244.496094 191.710938 243.46875 191.503906 242.429688 C 191.296875 241.386719 191.144531 240.339844 191.039062 239.285156 C 190.933594 238.230469 190.882812 237.171875 190.882812 236.109375 C 190.882812 235.050781 190.933594 233.992188 191.039062 232.9375 C 191.144531 231.878906 191.296875 230.832031 191.503906 229.792969 C 191.710938 228.75 191.96875 227.722656 192.277344 226.710938 C 192.585938 225.695312 192.945312 224.695312 193.351562 223.714844 C 193.757812 222.738281 194.210938 221.777344 194.710938 220.84375 C 195.210938 219.910156 195.753906 219 196.34375 218.117188 C 196.933594 217.234375 197.566406 216.382812 198.242188 215.566406 C 198.914062 214.746094 199.625 213.960938 200.375 213.210938 C 201.128906 212.460938 201.914062 211.75 202.734375 211.074219 C 203.554688 210.402344 204.40625 209.773438 205.289062 209.183594 C 206.171875 208.59375 207.082031 208.046875 208.015625 207.546875 C 208.953125 207.046875 209.910156 206.59375 210.890625 206.1875 C 211.875 205.785156 212.871094 205.425781 213.886719 205.117188 C 214.902344 204.8125 215.933594 204.554688 216.972656 204.347656 C 218.015625 204.140625 219.0625 203.984375 220.121094 203.878906 C 221.175781 203.777344 222.234375 203.722656 223.296875 203.722656 C 224.359375 203.722656 225.417969 203.777344 226.472656 203.878906 C 227.53125 203.984375 228.578125 204.140625 229.621094 204.347656 C 230.660156 204.554688 231.691406 204.8125 232.707031 205.117188 C 233.722656 205.425781 234.71875 205.785156 235.699219 206.1875 C 236.683594 206.59375 237.640625 207.046875 238.578125 207.546875 C 239.511719 208.046875 240.421875 208.59375 241.304688 209.183594 C 242.1875 209.773438 243.039062 210.402344 243.859375 211.074219 C 244.679688 211.75 245.464844 212.460938 246.21875 213.210938 C 246.96875 213.960938 247.679688 214.746094 248.351562 215.566406 C 249.027344 216.382812 249.660156 217.234375 250.25 218.117188 C 250.835938 219 251.382812 219.910156 251.882812 220.84375 C 252.382812 221.777344 252.835938 222.738281 253.242188 223.714844 C 253.648438 224.695312 254.007812 225.695312 254.316406 226.710938 C 254.625 227.722656 254.882812 228.75 255.089844 229.792969 C 255.296875 230.832031 255.449219 231.878906 255.554688 232.9375 C 255.660156 233.992188 255.710938 235.050781 255.710938 236.109375 Z M 255.710938 236.109375 " fill-opacity="1" fill-rule="nonzero"/><g clip-path="url(#0b61eec05f)"><path fill="#abbcff" d="M 184.398438 333.269531 C 184.398438 334.332031 184.347656 335.386719 184.242188 336.445312 C 184.140625 337.5 183.984375 338.546875 183.777344 339.585938 C 183.570312 340.628906 183.3125 341.65625 183.003906 342.671875 C 182.695312 343.6875 182.339844 344.683594 181.933594 345.664062 C 181.527344 346.644531 181.074219 347.601562 180.574219 348.535156 C 180.070312 349.472656 179.527344 350.378906 178.9375 351.261719 C 178.347656 352.144531 177.714844 352.996094 177.042969 353.816406 C 176.367188 354.636719 175.65625 355.421875 174.90625 356.171875 C 174.15625 356.921875 173.371094 357.632812 172.550781 358.304688 C 171.730469 358.976562 170.878906 359.609375 169.996094 360.199219 C 169.113281 360.789062 168.203125 361.332031 167.265625 361.832031 C 166.328125 362.332031 165.371094 362.785156 164.390625 363.191406 C 163.410156 363.597656 162.410156 363.953125 161.394531 364.261719 C 160.378906 364.570312 159.351562 364.828125 158.308594 365.035156 C 157.269531 365.242188 156.21875 365.394531 155.164062 365.5 C 154.105469 365.605469 153.046875 365.65625 151.984375 365.65625 C 150.925781 365.65625 149.867188 365.605469 148.808594 365.5 C 147.753906 365.394531 146.703125 365.242188 145.664062 365.035156 C 144.621094 364.828125 143.59375 364.570312 142.578125 364.261719 C 141.5625 363.953125 140.5625 363.597656 139.582031 363.191406 C 138.601562 362.785156 137.640625 362.332031 136.707031 361.832031 C 135.769531 361.332031 134.859375 360.789062 133.976562 360.199219 C 133.09375 359.609375 132.242188 358.976562 131.421875 358.304688 C 130.601562 357.632812 129.816406 356.921875 129.066406 356.171875 C 128.316406 355.421875 127.601562 354.636719 126.929688 353.816406 C 126.257812 352.996094 125.625 352.144531 125.035156 351.261719 C 124.445312 350.378906 123.898438 349.472656 123.398438 348.535156 C 122.898438 347.601562 122.445312 346.644531 122.039062 345.664062 C 121.632812 344.683594 121.277344 343.6875 120.96875 342.671875 C 120.660156 341.65625 120.402344 340.628906 120.195312 339.585938 C 119.988281 338.546875 119.832031 337.5 119.726562 336.445312 C 119.625 335.386719 119.570312 334.332031 119.570312 333.269531 C 119.570312 332.207031 119.625 331.152344 119.726562 330.09375 C 119.832031 329.039062 119.988281 327.992188 120.195312 326.953125 C 120.402344 325.910156 120.660156 324.882812 120.96875 323.867188 C 121.277344 322.851562 121.632812 321.855469 122.039062 320.875 C 122.445312 319.894531 122.898438 318.9375 123.398438 318.003906 C 123.898438 317.066406 124.445312 316.160156 125.035156 315.277344 C 125.625 314.394531 126.257812 313.542969 126.929688 312.722656 C 127.601562 311.902344 128.316406 311.117188 129.066406 310.367188 C 129.816406 309.617188 130.601562 308.90625 131.421875 308.234375 C 132.242188 307.5625 133.09375 306.929688 133.976562 306.339844 C 134.859375 305.753906 135.769531 305.207031 136.707031 304.707031 C 137.640625 304.207031 138.601562 303.753906 139.582031 303.347656 C 140.5625 302.941406 141.5625 302.585938 142.578125 302.277344 C 143.59375 301.96875 144.621094 301.710938 145.664062 301.503906 C 146.703125 301.296875 147.753906 301.144531 148.808594 301.039062 C 149.867188 300.933594 150.925781 300.882812 151.984375 300.882812 C 153.046875 300.882812 154.105469 300.933594 155.164062 301.039062 C 156.21875 301.144531 157.269531 301.296875 158.308594 301.503906 C 159.351562 301.710938 160.378906 301.96875 161.394531 302.277344 C 162.410156 302.585938 163.410156 302.941406 164.390625 303.347656 C 165.371094 303.753906 166.328125 304.207031 167.265625 304.707031 C 168.203125 305.207031 169.113281 305.753906 169.996094 306.339844 C 170.875 306.929688 171.730469 307.5625 172.550781 308.234375 C 173.371094 308.90625 174.15625 309.617188 174.90625 310.367188 C 175.65625 311.117188 176.367188 311.902344 177.042969 312.722656 C 177.714844 313.542969 178.347656 314.394531 178.9375 315.277344 C 179.527344 316.160156 180.070312 317.066406 180.574219 318.003906 C 181.074219 318.9375 181.527344 319.894531 181.933594 320.875 C 182.339844 321.855469 182.695312 322.851562 183.003906 323.867188 C 183.3125 324.882812 183.570312 325.910156 183.777344 326.953125 C 183.984375 327.992188 184.140625 329.039062 184.242188 330.09375 C 184.347656 331.152344 184.398438 332.207031 184.398438 333.269531 Z M 184.398438 333.269531 " fill-opacity="1" fill-rule="nonzero"/></g><g clip-path="url(#8c867b8649)"><path fill="#abbcff" d="M 327.023438 333.269531 C 327.023438 334.332031 326.96875 335.386719 326.867188 336.445312 C 326.761719 337.5 326.605469 338.546875 326.398438 339.585938 C 326.191406 340.628906 325.933594 341.65625 325.625 342.671875 C 325.316406 343.6875 324.960938 344.683594 324.554688 345.664062 C 324.148438 346.644531 323.695312 347.601562 323.195312 348.535156 C 322.695312 349.472656 322.148438 350.378906 321.558594 351.261719 C 320.96875 352.144531 320.335938 352.996094 319.664062 353.816406 C 318.992188 354.636719 318.277344 355.421875 317.527344 356.171875 C 316.777344 356.921875 315.992188 357.632812 315.171875 358.304688 C 314.351562 358.976562 313.5 359.609375 312.617188 360.199219 C 311.734375 360.789062 310.824219 361.332031 309.886719 361.832031 C 308.953125 362.332031 307.992188 362.785156 307.011719 363.191406 C 306.03125 363.597656 305.03125 363.953125 304.015625 364.261719 C 303 364.570312 301.972656 364.828125 300.929688 365.035156 C 299.890625 365.242188 298.839844 365.394531 297.785156 365.5 C 296.726562 365.605469 295.667969 365.65625 294.609375 365.65625 C 293.546875 365.65625 292.488281 365.605469 291.429688 365.5 C 290.375 365.394531 289.324219 365.242188 288.285156 365.035156 C 287.242188 364.828125 286.214844 364.570312 285.199219 364.261719 C 284.183594 363.953125 283.183594 363.597656 282.203125 363.191406 C 281.222656 362.785156 280.265625 362.332031 279.328125 361.832031 C 278.390625 361.332031 277.480469 360.789062 276.597656 360.199219 C 275.714844 359.609375 274.863281 358.976562 274.042969 358.304688 C 273.222656 357.632812 272.4375 356.921875 271.6875 356.171875 C 270.9375 355.421875 270.226562 354.636719 269.550781 353.816406 C 268.878906 352.996094 268.246094 352.144531 267.65625 351.261719 C 267.066406 350.378906 266.519531 349.472656 266.019531 348.535156 C 265.519531 347.601562 265.066406 346.644531 264.660156 345.664062 C 264.253906 344.683594 263.898438 343.6875 263.589844 342.671875 C 263.28125 341.65625 263.023438 340.628906 262.816406 339.585938 C 262.609375 338.546875 262.453125 337.5 262.351562 336.445312 C 262.246094 335.386719 262.195312 334.332031 262.195312 333.269531 C 262.195312 332.207031 262.246094 331.152344 262.351562 330.09375 C 262.453125 329.039062 262.609375 327.992188 262.816406 326.953125 C 263.023438 325.910156 263.28125 324.882812 263.589844 323.867188 C 263.898438 322.851562 264.253906 321.855469 264.660156 320.875 C 265.066406 319.894531 265.519531 318.9375 266.019531 318.003906 C 266.519531 317.066406 267.066406 316.160156 267.65625 315.277344 C 268.246094 314.394531 268.878906 313.542969 269.550781 312.722656 C 270.226562 311.902344 270.9375 311.117188 271.6875 310.367188 C 272.4375 309.617188 273.222656 308.90625 274.042969 308.234375 C 274.863281 307.5625 275.714844 306.929688 276.597656 306.339844 C 277.480469 305.753906 278.390625 305.207031 279.328125 304.707031 C 280.265625 304.207031 281.222656 303.753906 282.203125 303.347656 C 283.183594 302.941406 284.183594 302.585938 285.199219 302.277344 C 286.214844 301.96875 287.242188 301.710938 288.285156 301.503906 C 289.324219 301.296875 290.375 301.144531 291.429688 301.039062 C 292.488281 300.933594 293.546875 300.882812 294.609375 300.882812 C 295.667969 300.882812 296.726562 300.933594 297.785156 301.039062 C 298.839844 301.144531 299.890625 301.296875 300.929688 301.503906 C 301.972656 301.710938 303 301.96875 304.015625 302.277344 C 305.03125 302.585938 306.03125 302.941406 307.011719 303.347656 C 307.992188 303.753906 308.953125 304.207031 309.886719 304.707031 C 310.824219 305.207031 311.734375 305.753906 312.617188 306.339844 C 313.5 306.929688 314.351562 307.5625 315.171875 308.234375 C 315.992188 308.90625 316.777344 309.617188 317.527344 310.367188 C 318.277344 311.117188 318.992188 311.902344 319.664062 312.722656 C 320.335938 313.542969 320.96875 314.394531 321.558594 315.277344 C 322.148438 316.160156 322.695312 317.066406 323.195312 318.003906 C 323.695312 318.9375 324.148438 319.894531 324.554688 320.875 C 324.960938 321.855469 325.316406 322.851562 325.625 323.867188 C 325.933594 324.882812 326.191406 325.910156 326.398438 326.953125 C 326.605469 327.992188 326.761719 329.039062 326.867188 330.09375 C 326.96875 331.152344 327.023438 332.207031 327.023438 333.269531 Z M 327.023438 333.269531 " fill-opacity="1" fill-rule="nonzero"/></g></svg>